PathFileType	4	(X/Y/Z)	C:/Users/beibeiliu/ov580/test_trc/User3\out5_training_dense_right.trc
DataRate	CameraRate	NumFrames	NumMarkers	Units	OrigDataRate	OrigDataStartFrame	OrigNumFrames
120	120	14	19	mm	120	376	500
Frame#	Time	ThumbCMC			ThumbMCP			ThumbIP			ThumbTip			IndexMCP			IndexPIP			IndexTip			MiddleMCP			MiddlePIP			MiddleTip			RingMCP			RingPIP			RingTip			PinkyMCP			PinkyPIP			PinkyTip			BackHand1			BackHand2			BackHand3	
		X0	Y0	Z0	X1	Y1	Z1	X2	Y2	Z2	X3	Y3	Z3	X4	Y4	Z4	X5	Y5	Z5	X6	Y6	Z6	X7	Y7	Z7	X8	Y8	Z8	X9	Y9	Z9	X10	Y10	Z10	X11	Y11	Z11	X12	Y12	Z12	X13	Y13	Z13	X14	Y14	Z14	X15	Y15	Z15	X16	Y16	Z16	X17	Y17	Z17	X18	Y18	Z18	
375	3.125	115.145	55.7134	-11.1039	104.871	45.8718	-41.8499	101.008	35.9322	-72.9109	110.041	20.5622	-91.667	138.871	40.5586	-79.2533	117.576	14.8146	-82.2709	118.471	20.8821	-46.4051	152.58	22.3791	-76.5675	131.142	0.00382499	-71.0944	132.01	14.0015	-31.9098	161.578	12.4952	-63.6759	142.562	-8.82394	-50.3971	136.891	11.7132	-22.914	172.457	5.35548	-49.4188	151.913	-11.6487	-40.5717	146.422	3.16915	-14.594	177.523	51.3596	-21.5986	172.457	55.0001	9.0086	146.719	70.1684	-14.7525	
376	3.13333	112.521	50.6777	-12.6479	96.932	38.4563	-35.0655	93.9826	24.3681	-65.9177	97.6149	5.80356	-84.0661	126.557	24.1914	-79.312	105.067	1.83852	-70.5842	106.676	13.431	-41.9013	142.732	6.40674	-70.5557	118.214	-11.5854	-59.1665	121.499	10.5096	-24.9868	148.489	-3.69085	-59.4038	130.377	-19.9385	-43.2803	126.286	-0.291999	-18.2541	158.709	-11.022	-45.2545	139.518	-23.2907	-29.7407	139.327	-1.92292	-7.20284	174.395	35.5965	-19.1057	170.975	45.6127	11.0859	150.72	59.979	-17.2832	
377	3.14167	109.175	48.1556	-5.35645	92.9778	36.2534	-32.9613	84.8094	22.5812	-56.1444	83.1841	3.18723	-75.3722	115.323	18.9538	-74.1809	93.4781	-2.60077	-63.9605	100.191	7.47429	-35.3977	126.472	-0.990511	-68.1997	104.456	-17.2716	-49.1737	112.169	5.27273	-20.2292	140.771	-12.6185	-52.0255	114.258	-24.4508	-33.0921	117.278	-3.51236	-11.3307	148.722	-20.3184	-39.4061	124.102	-27.0271	-24.4253	124.65	-7.81076	-5.76906	168.58	24.3601	-21.5445	171.319	33.7353	7.37638	146.692	55.0802	-13.3476	
378	3.15	108.711	48.3248	0.306216	84.8556	41.9447	-23.4037	74.7719	27.7264	-50.8966	71.2695	11.3443	-64.2418	106.071	22.843	-68.9147	80.7848	1.87522	-59.0387	90.865	15.8421	-28.9515	112.148	0.900281	-63.7806	90.4486	-15.4471	-46.1289	102.573	4.83151	-14.9224	123.519	-11.5035	-50.0008	101.024	-24.1358	-27.8292	106.755	-0.618204	-5.99714	132.187	-24.5727	-37.7257	109.81	-26.5738	-22.7456	117.856	-8.52502	0.805097	160.425	18.9798	-22.2689	166.063	32.1472	10.1995	144.194	48.3458	-14.0754	
379	3.15833	105.702	55.1187	0.820713	87.8028	46.1641	-20.4446	70.7997	40.8537	-40.8675	62.0416	26.7984	-58.846	98.4599	26.7563	-64.5347	69.4989	14.2731	-56.1956	81.7696	20.2074	-24.3597	100.581	1.96121	-60.1285	76.9086	-5.40052	-41.3011	95.8707	8.52602	-9.47035	106.75	-8.35488	-47.3443	85.8486	-15.6971	-28.7512	98.3176	-0.551151	-0.870727	118.884	-24.8077	-34.858	94.907	-21.8074	-17.6766	104.387	-4.13055	5.20284	156.404	13.288	-20.0613	163.938	20.4166	5.90542	142.42	46.1661	-7.21868	
380	3.16667	110.506	61.586	11.621	90.2873	57.4818	-15.286	71.9228	60.3047	-36.2246	59.3843	48.8827	-56.412	91.6376	36.0768	-62.7964	62.7922	31.3868	-53.3023	76.18	30.6878	-20.1537	92.6401	15.1032	-56.2019	66.912	9.6333	-36.9405	91.3324	22.1459	-5.40339	95.0168	-2.30485	-45.3389	75.0558	-4.70903	-24.0538	87.525	12.2622	1.21057	105.92	-13.5253	-34.2897	81.8289	-11.3351	-13.3907	94.2915	-0.614222	7.3081	146.175	15.3757	-18.9399	157.211	16.4984	7.9911	143.172	48.6703	-8.89088	
381	3.175	117.987	66.1752	14.6547	97.6249	70.618	-12.4	79.6615	77.35	-32.6423	65.3438	70.1244	-55.4393	95.1369	51.8826	-56.3126	62.3415	48.0062	-47.4358	74.0708	51.4627	-16.0452	89.2539	29.7121	-54.6309	62.3534	28.2328	-33.5773	85.4659	31.5812	-5.03547	87.132	13.0119	-42.8207	67.5378	10.2973	-20.7813	87.2369	24.6722	3.76896	91.9218	-2.63365	-31.717	73.4776	3.55452	-14.2563	88.7276	9.58967	10.5255	143.513	12.8029	-19.4462	154.793	13.1162	10.018	146.46	48.7168	-4.35103	
382	3.18333	125.184	73.3665	14.2362	108.551	81.9762	-7.50872	94.0294	89.8912	-33.1435	79.9697	85.5104	-51.76	100.386	62.8067	-54.7267	68.5815	66.0523	-47.1511	77.6293	66.8336	-16.1295	94.5006	44.0727	-52.7867	65.0416	48.9958	-38.202	85.7485	42.0602	-3.99298	88.9012	21.9404	-41.8746	65.9171	26.9583	-19.8633	88.7667	31.4268	5.27898	91.0502	7.43006	-31.2512	69.6088	16.3303	-12.6147	89.0794	23.7108	8.52074	138.623	13.6939	-16.3336	151.578	10.9751	15.9818	150.035	49.9428	0.0780363	
383	3.19167	133.746	72.6677	21.3045	121.361	88.4424	-5.3341	109.84	98.3616	-31.4386	97.8456	103.5	-50.5797	113.047	74.147	-54.2336	80.1901	79.8483	-47.7827	88.3736	75.6528	-14.4013	99.5834	56.1382	-53.7973	72.8238	65.9387	-38.4539	95.4885	54.2359	-4.99538	92.887	35.8743	-44.6398	69.6004	44.6698	-22.4999	87.7601	45.4573	1.47095	87.1398	21.9136	-34.8723	70.5753	31.6518	-14.57	91.8104	35.6649	7.33006	140.764	21.1816	-14.6011	148.547	12.1266	17.1114	154.716	46.8924	4.591	
384	3.2	141.291	78.0246	22.6774	133.717	97.8524	-4.25767	124.655	106.66	-25.6453	115.4	111.815	-49.5785	126.583	83.6919	-52.5019	97.2169	97.4424	-50.0414	99.3031	89.412	-17.2113	110.801	69.8475	-54.1893	84.6569	80.6374	-37.3633	102.38	68.5616	-5.92438	104.032	49.8313	-44.9406	77.1177	59.486	-32.4112	95.2278	58.8927	-1.83942	94.1187	34.1364	-39.3955	78.1464	48.796	-21.7214	94.2913	43.017	5.2599	142.178	24.1652	-16.1751	147.752	17.155	17.7013	160.3	50.9089	4.7715	
385	3.20833	145.009	84.8435	22.9942	138.452	101.763	1.56496	134.248	117.311	-25.1481	124.581	122.055	-46.3228	136.079	90.1077	-48.6995	105.538	104.867	-46.5556	111.162	98.4038	-14.6469	119.545	76.0856	-54.6833	91.6475	87.4831	-39.0433	109.281	78.3688	-7.02655	112.064	61.5621	-47.5186	86.0111	71.3941	-36.1093	97.9325	63.3201	-4.65211	101.665	43.4007	-43.3971	84.1169	58.9289	-29.0069	96.1405	55.9041	-1.9755	148.814	30.7605	-12.0596	148.5	22.607	14.0495	164.546	57.8782	9.12932	
386	3.21667	144.41	91.3945	27.1214	139.344	114.049	4.68353	136.336	126.939	-20.4392	129.343	133.371	-43.5352	146.182	105.168	-45.166	116.793	119.901	-42.7323	120.248	109.303	-12.8422	128.922	88.8561	-54.5208	103.798	103.826	-43.2685	116.299	86.8864	-5.05817	119.498	72.8679	-50.7094	94.8983	84.455	-37.5295	103.711	74.5913	-7.24819	116.201	55.5817	-44.0153	90.3595	67.771	-34.7851	100.232	64.1367	-6.26503	153.252	44.9277	-9.81707	152.79	32.4965	17.1764	164.05	66.1311	16.5961	
387	3.225	141.915	100.364	35.9361	134.658	119.57	13.6541	134.645	139.41	-9.04941	127.938	144.465	-35.3362	154.274	117.005	-36.4833	124.99	130.88	-34.3104	127.406	112.865	-10.0775	145.494	104.689	-44.4501	111.11	113.403	-41.2137	115.901	94.0917	-6.56063	134.209	87.5385	-46.3905	105.696	97.0058	-39.4042	106.43	83.5678	-10.7565	126.336	70.3855	-46.7802	100.427	80.031	-38.7623	101.658	77.6245	-12.2063	160.558	56.9828	-6.93284	154.188	41.9172	20.1553	167.099	72.7929	20.4013	
388	3.23333	139.094	108.967	41.1403	135.47	134.194	15.9714	133.348	150.569	-5.90025	130.653	143.717	-35.1107	161.935	137.63	-24.116	133.614	143.694	-27.5949	135.765	123.591	-3.17319	156.406	120.593	-34.989	122.34	130.017	-38.0948	116.226	108.735	-6.98961	145.671	102.69	-44.192	119.241	109.246	-43.4937	112.435	98.6579	-12.5022	141.273	79.9332	-43.0332	116.111	94.7226	-41.5155	109.069	83.0674	-12.2074	163.71	63.3648	2.249	156.918	50.4857	26.6692	168.061	84.5319	29.6436	
